<svg version="1.1" xmlns="http://www.w3.org/2000/svg" xmlns:xlink="http://www.w3.org/1999/xlink" width="1215" height="306" viewBox="0 0 1215 306"><defs/><g transform="matrix(1,0,0,1,0,0)"><g><g><g><path fill="none" stroke="#d3d3d3" paint-order="fill stroke markers" d=" M 0 0 L 1200 0" stroke-miterlimit="10" stroke-opacity="0.8" stroke-dasharray="5"/></g><g><path fill="none" stroke="#d3d3d3" paint-order="fill stroke markers" d=" M 0 0 L 0 800" stroke-miterlimit="10" stroke-opacity="0.8" stroke-dasharray="5"/></g></g><g id="_3F9A113B-0A54-42C2-8A56-03470BFF5A4B" bpmn2nodeid="_3F9A113B-0A54-42C2-8A56-03470BFF5A4B" transform="matrix(1,0,0,1,882,154)"><g><path fill="none" stroke="none"/></g><g transform="matrix(1,0,0,1,0,0)"><path fill="#ffffff" stroke="none" id="_3F9A113B-0A54-42C2-8A56-03470BFF5A4B?shapeType=BACKGROUND" paint-order="stroke fill markers" d=" M 2 0 L 152 0 L 152 0 A 2 2 0 0 1 154 2 L 154 100 L 154 100 A 2 2 0 0 1 152 102 L 2 102 L 2 102 A 2 2 0 0 1 0 100 L 0 2 L 0 2.0000000000000004 A 2 2 0 0 1 1.9999999999999996 0 Z"/></g><g transform="matrix(1,0,0,1,0,0)"><path fill="none" stroke="#000000" id="_3F9A113B-0A54-42C2-8A56-03470BFF5A4B?shapeType=BORDER&amp;renderType=STROKE" paint-order="fill stroke markers" d=" M 2 0 L 152 0 L 152 0 A 2 2 0 0 1 154 2 L 154 100 L 154 100 A 2 2 0 0 1 152 102 L 2 102 L 2 102 A 2 2 0 0 1 0 100 L 0 2 L 0 2.0000000000000004 A 2 2 0 0 1 1.9999999999999996 0 Z" stroke-miterlimit="10" stroke-width="1.5" stroke-dasharray=""/></g><g><g transform="matrix(0.06,0,0,0.06,9.4,9.4)"><g transform="matrix(1,0,0,1,0,0)"><path fill="#393f44" stroke="none" id="_3F9A113B-0A54-42C2-8A56-03470BFF5A4B_task__0LYj__i5ym" paint-order="stroke fill markers" d=" M 0 0 M 128 344 L 128 296 C 128 293.7 127.2 291.8 125.8 290.2 C 124.39999999999999 288.59999999999997 122.39999999999999 288 120 288 L 40 288 C 37.7 288 35.8 288.8 34.2 290.2 C 32.60000000000001 291.59999999999997 32 293.7 32 296 L 32 344 C 32 346.3 32.8 348.2 34.2 349.8 C 35.60000000000001 351.40000000000003 37.6 352 40 352 L 120 352 C 122.3 352 124.2 351.2 125.8 349.8 C 127.39999999999999 348.40000000000003 128 346.3 128 344 Z M 0 0 M 128 248 L 128 200 C 128 197.7 127.2 195.8 125.8 194.2 C 124.39999999999999 192.59999999999997 122.39999999999999 192 120 192 L 40 192 C 37.7 192 35.8 192.8 34.2 194.2 C 32.60000000000001 195.59999999999997 32 197.7 32 200 L 32 248 C 32 250.3 32.8 252.2 34.2 253.8 C 35.60000000000001 255.40000000000003 37.6 256 40 256 L 120 256 C 122.3 256 124.2 255.2 125.8 253.8 C 127.39999999999999 252.40000000000003 128 250.3 128 248 Z M 0 0 M 376 352 C 378.3 352 380.2 351.2 381.8 349.8 C 383.40000000000003 348.40000000000003 384 346.40000000000003 384 344 L 384 296 C 384 293.7 383.2 291.8 381.8 290.2 C 380.40000000000003 288.59999999999997 378.40000000000003 288 376 288 L 168 288 C 165.7 288 163.8 288.8 162.2 290.2 C 160.59999999999997 291.59999999999997 160 293.59999999999997 160 296 L 160 344 C 160 346.3 160.8 348.2 162.2 349.8 C 163.59999999999997 351.40000000000003 165.6 352 168 352 L 376 352 Z M 0 0 M 128 152 L 128 104 C 128 101.7 127.2 99.8 125.8 98.2 C 124.39999999999999 96.60000000000001 122.3 96 120 96 L 40 96 C 37.7 96 35.8 96.8 34.2 98.2 C 32.60000000000001 99.60000000000001 32 101.7 32 104 L 32 152 C 32 154.3 32.8 156.2 34.2 157.8 C 35.60000000000001 159.40000000000003 37.6 160 40 160 L 120 160 C 122.3 160 124.2 159.2 125.8 157.8 C 127.39999999999999 156.40000000000003 128 154.3 128 152 Z M 0 0 M 376 256 C 378.3 256 380.2 255.2 381.8 253.8 C 383.40000000000003 252.40000000000003 384 250.4 384 248 L 384 200 C 384 197.7 383.2 195.8 381.8 194.2 C 380.40000000000003 192.59999999999997 378.40000000000003 192 376 192 L 168 192 C 165.7 192 163.8 192.8 162.2 194.2 C 160.59999999999997 195.59999999999997 160 197.6 160 200 L 160 248 C 160 250.3 160.8 252.2 162.2 253.8 C 163.59999999999997 255.40000000000003 165.6 256 168 256 L 376 256 Z M 0 0 M 376 160 C 378.3 160 380.2 159.2 381.8 157.8 C 383.40000000000003 156.40000000000003 384 154.4 384 152 L 384 104 C 384 101.7 383.2 99.8 381.8 98.2 C 380.40000000000003 96.60000000000001 378.3 96 376 96 L 168 96 C 165.7 96 163.8 96.8 162.2 98.2 C 160.59999999999997 99.60000000000001 160 101.60000000000001 160 104 L 160 152 C 160 154.3 160.8 156.2 162.2 157.8 C 163.59999999999997 159.40000000000003 165.6 160 168 160 L 376 160 Z M 0 0 M 416 72 L 416 344 C 416 355 412.1 364.4 404.2 372.2 C 396.29999999999995 380 387 384 376 384 L 40 384 C 29 384 19.6 380.1 11.8 372.2 C 4 364.29999999999995 0 355 0 344 L 0 72 C 0 61 3.9 51.6 11.8 43.8 C 19.700000000000003 35.99999999999999 29 32 40 32 L 376 32 C 387 32 396.4 35.9 404.2 43.8 C 412 51.699999999999996 416 61 416 72 Z"/></g></g></g><g transform="matrix(1,0,0,1,65.9375,43.5)"><text fill="#000000" stroke="none" font-family="Open Sans" font-size="12pt" font-style="normal" font-weight="normal" text-decoration="normal" x="11.0625" y="12" text-anchor="middle" dominant-baseline="alphabetic">Fin</text></g></g><g id="_4553F256-7BD8-463D-9F5A-9C430E10B74A" bpmn2nodeid="_4553F256-7BD8-463D-9F5A-9C430E10B74A" transform="matrix(1,0,0,1,1109,177)"><g><path fill="none" stroke="none"/></g><g transform="matrix(0.125,0,0,0.125,0,0)"><g transform="matrix(1,0,0,1,0,0)"><path fill="#fce7e7" stroke="none" id="_4553F256-7BD8-463D-9F5A-9C430E10B74A?shapeType=BACKGROUND" paint-order="stroke fill markers" d=" M 0 0 M 444 224 C 444 263.9 434.2 300.8 414.4 334.5 C 394.7 368.2 368 394.9 334.4 414.5 C 300.79999999999995 434.1 263.9 444 224 444 C 184.10000000000002 444 147.2 434.2 113.5 414.4 C 79.8 394.7 53.1 368 33.5 334.4 C 13.899999999999999 300.79999999999995 4 263.9 4 224 C 4 184.10000000000002 13.8 147.2 33.6 113.5 C 53.400000000000006 79.80000000000001 80.1 53.1 113.6 33.5 C 147.1 13.899999999999999 184.1 4 224 4 C 263.9 4 300.8 13.8 334.5 33.6 C 368.2 53.400000000000006 394.9 80.1 414.5 113.6 C 434.1 147.1 444 184.1 444 224 Z"/></g><g><g transform="matrix(1,0,0,1,0,0)"><g transform="matrix(1,0,0,1,0,0)"><path fill="#a30000" stroke="none" id="_4553F256-7BD8-463D-9F5A-9C430E10B74A?shapeType=BORDER&amp;renderType=FILL" paint-order="stroke fill markers" d=" M 0 0 M 224 0 C 100.3 0 0 100.3 0 224 C 0 347.7 100.3 448 224 448 C 347.7 448 448 347.7 448 224 C 448 100.30000000000001 347.7 0 224 0 Z M 0 0 M 224 400 C 126.8 400 48 321.2 48 224 C 48 126.80000000000001 126.8 48 224 48 C 321.2 48 400 126.8 400 224 C 400 321.2 321.2 400 224 400 Z"/></g></g></g></g><g transform="matrix(1,0,0,1,28,61)"/></g><g id="_0AEDCDC7-1FA3-4233-B7FE-6146E371D86E" bpmn2nodeid="_0AEDCDC7-1FA3-4233-B7FE-6146E371D86E" transform="matrix(1,0,0,1,233,154)"><g><path fill="none" stroke="none"/></g><g transform="matrix(1,0,0,1,0,0)"><path fill="#ffffff" stroke="none" id="_0AEDCDC7-1FA3-4233-B7FE-6146E371D86E?shapeType=BACKGROUND" paint-order="stroke fill markers" d=" M 2 0 L 152 0 L 152 0 A 2 2 0 0 1 154 2 L 154 100 L 154 100 A 2 2 0 0 1 152 102 L 2 102 L 2 102 A 2 2 0 0 1 0 100 L 0 2 L 0 2.0000000000000004 A 2 2 0 0 1 1.9999999999999996 0 Z"/></g><g transform="matrix(1,0,0,1,0,0)"><path fill="none" stroke="#000000" id="_0AEDCDC7-1FA3-4233-B7FE-6146E371D86E?shapeType=BORDER&amp;renderType=STROKE" paint-order="fill stroke markers" d=" M 2 0 L 152 0 L 152 0 A 2 2 0 0 1 154 2 L 154 100 L 154 100 A 2 2 0 0 1 152 102 L 2 102 L 2 102 A 2 2 0 0 1 0 100 L 0 2 L 0 2.0000000000000004 A 2 2 0 0 1 1.9999999999999996 0 Z" stroke-miterlimit="10" stroke-width="1.5" stroke-dasharray=""/></g><g><g transform="matrix(0.06,0,0,0.06,9.4,9.4)"><g transform="matrix(1,0,0,1,0,0)"><path fill="#393f44" stroke="none" id="_0AEDCDC7-1FA3-4233-B7FE-6146E371D86E_task__0LYj__i5ym" paint-order="stroke fill markers" d=" M 0 0 M 128 344 L 128 296 C 128 293.7 127.2 291.8 125.8 290.2 C 124.39999999999999 288.59999999999997 122.39999999999999 288 120 288 L 40 288 C 37.7 288 35.8 288.8 34.2 290.2 C 32.60000000000001 291.59999999999997 32 293.7 32 296 L 32 344 C 32 346.3 32.8 348.2 34.2 349.8 C 35.60000000000001 351.40000000000003 37.6 352 40 352 L 120 352 C 122.3 352 124.2 351.2 125.8 349.8 C 127.39999999999999 348.40000000000003 128 346.3 128 344 Z M 0 0 M 128 248 L 128 200 C 128 197.7 127.2 195.8 125.8 194.2 C 124.39999999999999 192.59999999999997 122.39999999999999 192 120 192 L 40 192 C 37.7 192 35.8 192.8 34.2 194.2 C 32.60000000000001 195.59999999999997 32 197.7 32 200 L 32 248 C 32 250.3 32.8 252.2 34.2 253.8 C 35.60000000000001 255.40000000000003 37.6 256 40 256 L 120 256 C 122.3 256 124.2 255.2 125.8 253.8 C 127.39999999999999 252.40000000000003 128 250.3 128 248 Z M 0 0 M 376 352 C 378.3 352 380.2 351.2 381.8 349.8 C 383.40000000000003 348.40000000000003 384 346.40000000000003 384 344 L 384 296 C 384 293.7 383.2 291.8 381.8 290.2 C 380.40000000000003 288.59999999999997 378.40000000000003 288 376 288 L 168 288 C 165.7 288 163.8 288.8 162.2 290.2 C 160.59999999999997 291.59999999999997 160 293.59999999999997 160 296 L 160 344 C 160 346.3 160.8 348.2 162.2 349.8 C 163.59999999999997 351.40000000000003 165.6 352 168 352 L 376 352 Z M 0 0 M 128 152 L 128 104 C 128 101.7 127.2 99.8 125.8 98.2 C 124.39999999999999 96.60000000000001 122.3 96 120 96 L 40 96 C 37.7 96 35.8 96.8 34.2 98.2 C 32.60000000000001 99.60000000000001 32 101.7 32 104 L 32 152 C 32 154.3 32.8 156.2 34.2 157.8 C 35.60000000000001 159.40000000000003 37.6 160 40 160 L 120 160 C 122.3 160 124.2 159.2 125.8 157.8 C 127.39999999999999 156.40000000000003 128 154.3 128 152 Z M 0 0 M 376 256 C 378.3 256 380.2 255.2 381.8 253.8 C 383.40000000000003 252.40000000000003 384 250.4 384 248 L 384 200 C 384 197.7 383.2 195.8 381.8 194.2 C 380.40000000000003 192.59999999999997 378.40000000000003 192 376 192 L 168 192 C 165.7 192 163.8 192.8 162.2 194.2 C 160.59999999999997 195.59999999999997 160 197.6 160 200 L 160 248 C 160 250.3 160.8 252.2 162.2 253.8 C 163.59999999999997 255.40000000000003 165.6 256 168 256 L 376 256 Z M 0 0 M 376 160 C 378.3 160 380.2 159.2 381.8 157.8 C 383.40000000000003 156.40000000000003 384 154.4 384 152 L 384 104 C 384 101.7 383.2 99.8 381.8 98.2 C 380.40000000000003 96.60000000000001 378.3 96 376 96 L 168 96 C 165.7 96 163.8 96.8 162.2 98.2 C 160.59999999999997 99.60000000000001 160 101.60000000000001 160 104 L 160 152 C 160 154.3 160.8 156.2 162.2 157.8 C 163.59999999999997 159.40000000000003 165.6 160 168 160 L 376 160 Z M 0 0 M 416 72 L 416 344 C 416 355 412.1 364.4 404.2 372.2 C 396.29999999999995 380 387 384 376 384 L 40 384 C 29 384 19.6 380.1 11.8 372.2 C 4 364.29999999999995 0 355 0 344 L 0 72 C 0 61 3.9 51.6 11.8 43.8 C 19.700000000000003 35.99999999999999 29 32 40 32 L 376 32 C 387 32 396.4 35.9 404.2 43.8 C 412 51.699999999999996 416 61 416 72 Z"/></g></g></g><g transform="matrix(1,0,0,1,57.171875,43.5)"><text fill="#000000" stroke="none" font-family="Open Sans" font-size="12pt" font-style="normal" font-weight="normal" text-decoration="normal" x="19.828125" y="12" text-anchor="middle" dominant-baseline="alphabetic">Inicio</text></g></g><g id="_65C16256-1EE9-4865-8E8C-3857B8FF7F9F" bpmn2nodeid="_65C16256-1EE9-4865-8E8C-3857B8FF7F9F" transform="matrix(1,0,0,1,457,154)"><g><path fill="none" stroke="none"/></g><g transform="matrix(1,0,0,1,0,0)"><path fill="#ffffff" stroke="none" id="_65C16256-1EE9-4865-8E8C-3857B8FF7F9F?shapeType=BACKGROUND" paint-order="stroke fill markers" d=" M 2 0 L 152 0 L 152 0 A 2 2 0 0 1 154 2 L 154 100 L 154 100 A 2 2 0 0 1 152 102 L 2 102 L 2 102 A 2 2 0 0 1 0 100 L 0 2 L 0 2.0000000000000004 A 2 2 0 0 1 1.9999999999999996 0 Z"/></g><g transform="matrix(1,0,0,1,0,0)"><path fill="none" stroke="#000000" id="_65C16256-1EE9-4865-8E8C-3857B8FF7F9F?shapeType=BORDER&amp;renderType=STROKE" paint-order="fill stroke markers" d=" M 2 0 L 152 0 L 152 0 A 2 2 0 0 1 154 2 L 154 100 L 154 100 A 2 2 0 0 1 152 102 L 2 102 L 2 102 A 2 2 0 0 1 0 100 L 0 2 L 0 2.0000000000000004 A 2 2 0 0 1 1.9999999999999996 0 Z" stroke-miterlimit="10" stroke-width="1.5" stroke-dasharray=""/></g><g><g transform="matrix(0.06,0,0,0.06,9.4,9.4)"><g transform="matrix(1,0,0,1,0,0)"><path fill="#393f44" stroke="none" id="_65C16256-1EE9-4865-8E8C-3857B8FF7F9F_task__0LYj__i5ym" paint-order="stroke fill markers" d=" M 0 0 M 128 344 L 128 296 C 128 293.7 127.2 291.8 125.8 290.2 C 124.39999999999999 288.59999999999997 122.39999999999999 288 120 288 L 40 288 C 37.7 288 35.8 288.8 34.2 290.2 C 32.60000000000001 291.59999999999997 32 293.7 32 296 L 32 344 C 32 346.3 32.8 348.2 34.2 349.8 C 35.60000000000001 351.40000000000003 37.6 352 40 352 L 120 352 C 122.3 352 124.2 351.2 125.8 349.8 C 127.39999999999999 348.40000000000003 128 346.3 128 344 Z M 0 0 M 128 248 L 128 200 C 128 197.7 127.2 195.8 125.8 194.2 C 124.39999999999999 192.59999999999997 122.39999999999999 192 120 192 L 40 192 C 37.7 192 35.8 192.8 34.2 194.2 C 32.60000000000001 195.59999999999997 32 197.7 32 200 L 32 248 C 32 250.3 32.8 252.2 34.2 253.8 C 35.60000000000001 255.40000000000003 37.6 256 40 256 L 120 256 C 122.3 256 124.2 255.2 125.8 253.8 C 127.39999999999999 252.40000000000003 128 250.3 128 248 Z M 0 0 M 376 352 C 378.3 352 380.2 351.2 381.8 349.8 C 383.40000000000003 348.40000000000003 384 346.40000000000003 384 344 L 384 296 C 384 293.7 383.2 291.8 381.8 290.2 C 380.40000000000003 288.59999999999997 378.40000000000003 288 376 288 L 168 288 C 165.7 288 163.8 288.8 162.2 290.2 C 160.59999999999997 291.59999999999997 160 293.59999999999997 160 296 L 160 344 C 160 346.3 160.8 348.2 162.2 349.8 C 163.59999999999997 351.40000000000003 165.6 352 168 352 L 376 352 Z M 0 0 M 128 152 L 128 104 C 128 101.7 127.2 99.8 125.8 98.2 C 124.39999999999999 96.60000000000001 122.3 96 120 96 L 40 96 C 37.7 96 35.8 96.8 34.2 98.2 C 32.60000000000001 99.60000000000001 32 101.7 32 104 L 32 152 C 32 154.3 32.8 156.2 34.2 157.8 C 35.60000000000001 159.40000000000003 37.6 160 40 160 L 120 160 C 122.3 160 124.2 159.2 125.8 157.8 C 127.39999999999999 156.40000000000003 128 154.3 128 152 Z M 0 0 M 376 256 C 378.3 256 380.2 255.2 381.8 253.8 C 383.40000000000003 252.40000000000003 384 250.4 384 248 L 384 200 C 384 197.7 383.2 195.8 381.8 194.2 C 380.40000000000003 192.59999999999997 378.40000000000003 192 376 192 L 168 192 C 165.7 192 163.8 192.8 162.2 194.2 C 160.59999999999997 195.59999999999997 160 197.6 160 200 L 160 248 C 160 250.3 160.8 252.2 162.2 253.8 C 163.59999999999997 255.40000000000003 165.6 256 168 256 L 376 256 Z M 0 0 M 376 160 C 378.3 160 380.2 159.2 381.8 157.8 C 383.40000000000003 156.40000000000003 384 154.4 384 152 L 384 104 C 384 101.7 383.2 99.8 381.8 98.2 C 380.40000000000003 96.60000000000001 378.3 96 376 96 L 168 96 C 165.7 96 163.8 96.8 162.2 98.2 C 160.59999999999997 99.60000000000001 160 101.60000000000001 160 104 L 160 152 C 160 154.3 160.8 156.2 162.2 157.8 C 163.59999999999997 159.40000000000003 165.6 160 168 160 L 376 160 Z M 0 0 M 416 72 L 416 344 C 416 355 412.1 364.4 404.2 372.2 C 396.29999999999995 380 387 384 376 384 L 40 384 C 29 384 19.6 380.1 11.8 372.2 C 4 364.29999999999995 0 355 0 344 L 0 72 C 0 61 3.9 51.6 11.8 43.8 C 19.700000000000003 35.99999999999999 29 32 40 32 L 376 32 C 387 32 396.4 35.9 404.2 43.8 C 412 51.699999999999996 416 61 416 72 Z"/></g></g></g><g transform="matrix(1,0,0,1,63.3515625,43.5)"><text fill="#000000" stroke="none" font-family="Open Sans" font-size="12pt" font-style="normal" font-weight="normal" text-decoration="normal" x="13.6484375" y="12" text-anchor="middle" dominant-baseline="alphabetic">RF1</text></g></g><g id="_AC732838-7412-412E-83A4-93245922560C" bpmn2nodeid="_AC732838-7412-412E-83A4-93245922560C" transform="matrix(1,0,0,1,107,177)"><g><path fill="none" stroke="none"/></g><g transform="matrix(0.125,0,0,0.125,0,0)"><g transform="matrix(1,0,0,1,0,0)"><path fill="#e8fae6" stroke="none" id="_AC732838-7412-412E-83A4-93245922560C?shapeType=BACKGROUND" paint-order="stroke fill markers" d=" M 0 0 M 444 224 C 444 263.9 434.2 300.8 414.4 334.5 C 394.7 368.2 368 394.9 334.4 414.5 C 300.79999999999995 434.1 263.9 444 224 444 C 184.10000000000002 444 147.2 434.2 113.5 414.4 C 79.8 394.7 53.1 368 33.5 334.4 C 13.899999999999999 300.79999999999995 4 263.9 4 224 C 4 184.10000000000002 13.8 147.2 33.6 113.5 C 53.400000000000006 79.80000000000001 80.1 53.1 113.6 33.5 C 147.1 13.899999999999999 184.1 4 224 4 C 263.9 4 300.8 13.8 334.5 33.6 C 368.2 53.400000000000006 394.9 80.1 414.5 113.6 C 434.1 147.1 444 184.1 444 224 Z"/></g><g><g transform="matrix(1,0,0,1,0,0)"><g transform="matrix(1,0,0,1,0,0)"><path fill="#4aa241" stroke="none" id="_AC732838-7412-412E-83A4-93245922560C?shapeType=BORDER&amp;renderType=FILL" paint-order="stroke fill markers" d=" M 0 0 M 224 0 C 100.3 0 0 100.3 0 224 C 0 347.7 100.3 448 224 448 C 347.7 448 448 347.7 448 224 C 448 100.30000000000001 347.7 0 224 0 Z M 0 0 M 224 432 C 109.1 432 16 338.9 16 224 C 16 109.10000000000002 109.1 16 224 16 C 338.9 16 432 109.1 432 224 C 432 338.9 338.9 432 224 432 Z"/></g></g></g></g><g transform="matrix(1,0,0,1,28,61)"/></g><g id="_F6552341-3825-4E59-A30A-35616720ECFF" bpmn2nodeid="_F6552341-3825-4E59-A30A-35616720ECFF" transform="matrix(1,0,0,1,655,154)"><g><path fill="none" stroke="none"/></g><g transform="matrix(1,0,0,1,0,0)"><path fill="#ffffff" stroke="none" id="_F6552341-3825-4E59-A30A-35616720ECFF?shapeType=BACKGROUND" paint-order="stroke fill markers" d=" M 2 0 L 152 0 L 152 0 A 2 2 0 0 1 154 2 L 154 100 L 154 100 A 2 2 0 0 1 152 102 L 2 102 L 2 102 A 2 2 0 0 1 0 100 L 0 2 L 0 2.0000000000000004 A 2 2 0 0 1 1.9999999999999996 0 Z"/></g><g transform="matrix(1,0,0,1,0,0)"><path fill="none" stroke="#000000" id="_F6552341-3825-4E59-A30A-35616720ECFF?shapeType=BORDER&amp;renderType=STROKE" paint-order="fill stroke markers" d=" M 2 0 L 152 0 L 152 0 A 2 2 0 0 1 154 2 L 154 100 L 154 100 A 2 2 0 0 1 152 102 L 2 102 L 2 102 A 2 2 0 0 1 0 100 L 0 2 L 0 2.0000000000000004 A 2 2 0 0 1 1.9999999999999996 0 Z" stroke-miterlimit="10" stroke-width="1.5" stroke-dasharray=""/></g><g><g transform="matrix(0.06,0,0,0.06,9.4,9.4)"><g transform="matrix(1,0,0,1,0,0)"><path fill="#393f44" stroke="none" id="_F6552341-3825-4E59-A30A-35616720ECFF_task__0LYj__i5ym" paint-order="stroke fill markers" d=" M 0 0 M 128 344 L 128 296 C 128 293.7 127.2 291.8 125.8 290.2 C 124.39999999999999 288.59999999999997 122.39999999999999 288 120 288 L 40 288 C 37.7 288 35.8 288.8 34.2 290.2 C 32.60000000000001 291.59999999999997 32 293.7 32 296 L 32 344 C 32 346.3 32.8 348.2 34.2 349.8 C 35.60000000000001 351.40000000000003 37.6 352 40 352 L 120 352 C 122.3 352 124.2 351.2 125.8 349.8 C 127.39999999999999 348.40000000000003 128 346.3 128 344 Z M 0 0 M 128 248 L 128 200 C 128 197.7 127.2 195.8 125.8 194.2 C 124.39999999999999 192.59999999999997 122.39999999999999 192 120 192 L 40 192 C 37.7 192 35.8 192.8 34.2 194.2 C 32.60000000000001 195.59999999999997 32 197.7 32 200 L 32 248 C 32 250.3 32.8 252.2 34.2 253.8 C 35.60000000000001 255.40000000000003 37.6 256 40 256 L 120 256 C 122.3 256 124.2 255.2 125.8 253.8 C 127.39999999999999 252.40000000000003 128 250.3 128 248 Z M 0 0 M 376 352 C 378.3 352 380.2 351.2 381.8 349.8 C 383.40000000000003 348.40000000000003 384 346.40000000000003 384 344 L 384 296 C 384 293.7 383.2 291.8 381.8 290.2 C 380.40000000000003 288.59999999999997 378.40000000000003 288 376 288 L 168 288 C 165.7 288 163.8 288.8 162.2 290.2 C 160.59999999999997 291.59999999999997 160 293.59999999999997 160 296 L 160 344 C 160 346.3 160.8 348.2 162.2 349.8 C 163.59999999999997 351.40000000000003 165.6 352 168 352 L 376 352 Z M 0 0 M 128 152 L 128 104 C 128 101.7 127.2 99.8 125.8 98.2 C 124.39999999999999 96.60000000000001 122.3 96 120 96 L 40 96 C 37.7 96 35.8 96.8 34.2 98.2 C 32.60000000000001 99.60000000000001 32 101.7 32 104 L 32 152 C 32 154.3 32.8 156.2 34.2 157.8 C 35.60000000000001 159.40000000000003 37.6 160 40 160 L 120 160 C 122.3 160 124.2 159.2 125.8 157.8 C 127.39999999999999 156.40000000000003 128 154.3 128 152 Z M 0 0 M 376 256 C 378.3 256 380.2 255.2 381.8 253.8 C 383.40000000000003 252.40000000000003 384 250.4 384 248 L 384 200 C 384 197.7 383.2 195.8 381.8 194.2 C 380.40000000000003 192.59999999999997 378.40000000000003 192 376 192 L 168 192 C 165.7 192 163.8 192.8 162.2 194.2 C 160.59999999999997 195.59999999999997 160 197.6 160 200 L 160 248 C 160 250.3 160.8 252.2 162.2 253.8 C 163.59999999999997 255.40000000000003 165.6 256 168 256 L 376 256 Z M 0 0 M 376 160 C 378.3 160 380.2 159.2 381.8 157.8 C 383.40000000000003 156.40000000000003 384 154.4 384 152 L 384 104 C 384 101.7 383.2 99.8 381.8 98.2 C 380.40000000000003 96.60000000000001 378.3 96 376 96 L 168 96 C 165.7 96 163.8 96.8 162.2 98.2 C 160.59999999999997 99.60000000000001 160 101.60000000000001 160 104 L 160 152 C 160 154.3 160.8 156.2 162.2 157.8 C 163.59999999999997 159.40000000000003 165.6 160 168 160 L 376 160 Z M 0 0 M 416 72 L 416 344 C 416 355 412.1 364.4 404.2 372.2 C 396.29999999999995 380 387 384 376 384 L 40 384 C 29 384 19.6 380.1 11.8 372.2 C 4 364.29999999999995 0 355 0 344 L 0 72 C 0 61 3.9 51.6 11.8 43.8 C 19.700000000000003 35.99999999999999 29 32 40 32 L 376 32 C 387 32 396.4 35.9 404.2 43.8 C 412 51.699999999999996 416 61 416 72 Z"/></g></g></g><g transform="matrix(1,0,0,1,63.3515625,43.5)"><text fill="#000000" stroke="none" font-family="Open Sans" font-size="12pt" font-style="normal" font-weight="normal" text-decoration="normal" x="13.6484375" y="12" text-anchor="middle" dominant-baseline="alphabetic">RF2</text></g></g><g id="_86791CD2-0BC0-4E52-9C48-FC0319DB1D2B" bpmn2nodeid="_86791CD2-0BC0-4E52-9C48-FC0319DB1D2B"><g><path fill="none" stroke="#000000" paint-order="fill stroke markers" d=" M 163 205 L 218 205" stroke-miterlimit="10" stroke-dasharray=""/></g><g transform="matrix(1,0,0,1,163,205)"/><g transform="matrix(6.123233995736766e-17,1,-1,6.123233995736766e-17,233,200)"><path fill="#000000" stroke="#000000" paint-order="fill stroke markers" d=" M 10 15 L 0 15 L 5 0 Z" stroke-miterlimit="10" stroke-dasharray=""/></g><g transform="matrix(1,0,0,1,163,195)"/></g><g id="_CD31BFFD-AEFB-460A-8BDF-486344A3CAE7" bpmn2nodeid="_CD31BFFD-AEFB-460A-8BDF-486344A3CAE7"><g><path fill="none" stroke="#000000" paint-order="fill stroke markers" d=" M 387 205 L 442 205" stroke-miterlimit="10" stroke-dasharray=""/></g><g transform="matrix(1,0,0,1,387,205)"/><g transform="matrix(6.123233995736766e-17,1,-1,6.123233995736766e-17,457,200)"><path fill="#000000" stroke="#000000" paint-order="fill stroke markers" d=" M 10 15 L 0 15 L 5 0 Z" stroke-miterlimit="10" stroke-dasharray=""/></g><g transform="matrix(1,0,0,1,387,195)"/></g><g id="_6284DF78-5448-4839-85BC-EC0ECC91E8C6" bpmn2nodeid="_6284DF78-5448-4839-85BC-EC0ECC91E8C6"><g><path fill="none" stroke="#000000" paint-order="fill stroke markers" d=" M 611 205 L 640 205" stroke-miterlimit="10" stroke-dasharray=""/></g><g transform="matrix(1,0,0,1,611,205)"/><g transform="matrix(6.123233995736766e-17,1,-1,6.123233995736766e-17,655,200)"><path fill="#000000" stroke="#000000" paint-order="fill stroke markers" d=" M 10 15 L 0 15 L 5 0 Z" stroke-miterlimit="10" stroke-dasharray=""/></g><g transform="matrix(1,0,0,1,611,195)"/></g><g id="_3A71006B-D7A1-45DE-9B63-B9649FAAF17C" bpmn2nodeid="_3A71006B-D7A1-45DE-9B63-B9649FAAF17C"><g><path fill="none" stroke="#000000" paint-order="fill stroke markers" d=" M 809 205 L 867 205" stroke-miterlimit="10" stroke-dasharray=""/></g><g transform="matrix(1,0,0,1,809,205)"/><g transform="matrix(6.123233995736766e-17,1,-1,6.123233995736766e-17,882,200)"><path fill="#000000" stroke="#000000" paint-order="fill stroke markers" d=" M 10 15 L 0 15 L 5 0 Z" stroke-miterlimit="10" stroke-dasharray=""/></g><g transform="matrix(1,0,0,1,809,195)"/></g><g id="_A3A44975-87FC-4AFB-A4A1-E449E7D530C3" bpmn2nodeid="_A3A44975-87FC-4AFB-A4A1-E449E7D530C3"><g><path fill="none" stroke="#000000" paint-order="fill stroke markers" d=" M 1036 205 L 1094 205" stroke-miterlimit="10" stroke-dasharray=""/></g><g transform="matrix(1,0,0,1,1036,205)"/><g transform="matrix(6.123233995736766e-17,1,-1,6.123233995736766e-17,1109,200)"><path fill="#000000" stroke="#000000" paint-order="fill stroke markers" d=" M 10 15 L 0 15 L 5 0 Z" stroke-miterlimit="10" stroke-dasharray=""/></g><g transform="matrix(1,0,0,1,1036,195)"/></g><g transform="matrix(1,0,0,1,882,154)"/><g transform="matrix(1,0,0,1,1109,177)"/><g transform="matrix(1,0,0,1,233,154)"/><g transform="matrix(1,0,0,1,457,154)"/><g transform="matrix(1,0,0,1,107,177)"/><g transform="matrix(1,0,0,1,655,154)"/></g></g></svg>